<?xml version="1.0" encoding="UTF-8"?>
<svg xmlns="http://www.w3.org/2000/svg" xmlns:xlink="http://www.w3.org/1999/xlink" width="16pt" height="16pt" viewBox="0 0 16 16" version="1.1">
<g id="surface1">
<path style=" stroke:none;fill-rule:nonzero;fill:rgb(0%,0%,0%);fill-opacity:1;" d="M 8 0.199219 C 3.578125 0.199219 0 3.78125 0 8.199219 C 0 11.734375 2.292969 14.730469 5.46875 15.789062 C 5.871094 15.863281 6.015625 15.617188 6.015625 15.402344 C 6.015625 15.214844 6.011719 14.710938 6.007812 14.042969 C 3.78125 14.527344 3.3125 12.96875 3.3125 12.96875 C 2.949219 12.046875 2.421875 11.800781 2.421875 11.800781 C 1.699219 11.304688 2.476562 11.3125 2.476562 11.3125 C 3.28125 11.371094 3.703125 12.136719 3.703125 12.136719 C 4.417969 13.363281 5.574219 13.007812 6.035156 12.804688 C 6.105469 12.285156 6.3125 11.933594 6.539062 11.734375 C 4.761719 11.535156 2.894531 10.84375 2.894531 7.78125 C 2.894531 6.90625 3.207031 6.191406 3.71875 5.632812 C 3.628906 5.429688 3.359375 4.617188 3.789062 3.515625 C 3.789062 3.515625 4.460938 3.300781 5.988281 4.335938 C 6.628906 4.15625 7.308594 4.070312 7.988281 4.066406 C 8.667969 4.070312 9.347656 4.15625 9.988281 4.335938 C 11.507812 3.300781 12.179688 3.515625 12.179688 3.515625 C 12.609375 4.617188 12.339844 5.429688 12.257812 5.632812 C 12.769531 6.191406 13.078125 6.90625 13.078125 7.78125 C 13.078125 10.851562 11.210938 11.53125 9.429688 11.726562 C 9.710938 11.964844 9.96875 12.457031 9.96875 13.207031 C 9.96875 14.277344 9.960938 15.136719 9.960938 15.398438 C 9.960938 15.605469 10.097656 15.855469 10.507812 15.777344 C 13.710938 14.726562 16 11.726562 16 8.199219 C 16 3.78125 12.417969 0.199219 8 0.199219 "/>
</g>
</svg>
