<?xml version="1.0" encoding="UTF-8"?>
<svg xmlns="http://www.w3.org/2000/svg" xmlns:xlink="http://www.w3.org/1999/xlink" width="16pt" height="16pt" viewBox="0 0 16 16" version="1.1">
<g id="surface1">
<path style=" stroke:none;fill-rule:nonzero;fill:rgb(0%,0%,0%);fill-opacity:1;" d="M 13.632812 13.632812 L 11.261719 13.632812 L 11.261719 9.921875 C 11.261719 9.035156 11.242188 7.898438 10.027344 7.898438 C 8.792969 7.898438 8.601562 8.859375 8.601562 9.855469 L 8.601562 13.632812 L 6.234375 13.632812 L 6.234375 6 L 8.511719 6 L 8.511719 7.039062 L 8.539062 7.039062 C 8.859375 6.441406 9.632812 5.808594 10.789062 5.808594 C 13.1875 5.808594 13.632812 7.386719 13.632812 9.445312 Z M 3.558594 4.957031 C 2.796875 4.957031 2.183594 4.339844 2.183594 3.578125 C 2.183594 2.820312 2.796875 2.203125 3.558594 2.203125 C 4.316406 2.203125 4.933594 2.820312 4.933594 3.578125 C 4.933594 4.339844 4.316406 4.957031 3.558594 4.957031 Z M 4.746094 13.632812 L 2.371094 13.632812 L 2.371094 6 L 4.746094 6 Z M 14.816406 0 L 1.179688 0 C 0.527344 0 0 0.515625 0 1.152344 L 0 14.847656 C 0 15.484375 0.527344 16 1.179688 16 L 14.816406 16 C 15.464844 16 16 15.484375 16 14.847656 L 16 1.152344 C 16 0.515625 15.464844 0 14.816406 0 Z M 14.816406 0 "/>
</g>
</svg>
